<?xml version="1.0" standalone="no"?>
<!DOCTYPE svg PUBLIC "-//W3C//DTD SVG 20010904//EN"
 "http://www.w3.org/TR/2001/REC-SVG-20010904/DTD/svg10.dtd">
<svg version="1.0" xmlns="http://www.w3.org/2000/svg"
 width="512.000000pt" height="512.000000pt" viewBox="0 0 512.000000 512.000000"
 preserveAspectRatio="xMidYMid meet">
<metadata>
Created by potrace 1.14, written by Peter Selinger 2001-2017
</metadata>
<g transform="translate(0.000000,512.000000) scale(0.100000,-0.100000)"
fill="#000000" stroke="none">
<path d="M812 3298 c-7 -7 -8 -17 -1 -30 12 -22 32 -23 49 -3 23 28 -21 60
-48 33z"/>
<path d="M900 3296 c-18 -22 -5 -48 22 -44 17 2 23 10 23 28 0 29 -26 38 -45
16z"/>
<path d="M197 3222 c-15 -3 -17 -21 -17 -141 l0 -138 35 -1 c35 -1 35 -1 35
42 l0 43 50 5 c58 6 87 28 95 72 8 41 -8 81 -40 102 -23 15 -114 24 -158 16z
m121 -64 c28 -28 8 -69 -37 -73 -30 -3 -31 -2 -31 41 0 42 2 44 28 44 15 0 33
-5 40 -12z"/>
<path d="M497 3222 c-18 -4 -18 -4 -18 -127 0 -169 -4 -156 36 -153 l35 2 0
56 0 56 48 -1 c48 -2 62 6 62 38 0 14 -9 17 -55 17 -54 0 -55 0 -55 30 0 17 3
29 8 29 4 -1 31 -1 60 0 50 1 52 2 52 29 l0 27 -78 0 c-43 0 -86 -1 -95 -3z"/>
<path d="M840 3220 c-7 -4 -100 -262 -100 -276 0 -1 16 -2 35 -2 30 0 37 5 49
32 12 28 17 31 56 30 38 -1 44 -5 56 -32 11 -27 18 -31 47 -30 l34 1 -45 136
c-24 75 -46 138 -48 139 -5 6 -75 8 -84 2z m64 -146 c5 -17 2 -20 -25 -20 -26
0 -30 3 -24 20 3 12 8 35 12 51 l7 30 12 -30 c6 -16 14 -39 18 -51z"/>
<path d="M1119 3222 l-26 -3 1 -137 1 -137 33 -3 c35 -4 35 -3 34 71 0 20 3
37 6 38 4 1 27 2 52 4 60 3 59 3 55 23 -2 9 -4 20 -4 25 -1 4 -25 7 -54 7 -48
0 -53 2 -55 24 -2 28 6 32 67 35 25 1 48 4 53 7 10 6 11 44 1 45 -26 3 -142 3
-164 1z"/>
<path d="M1369 3200 c-4 -71 -4 -237 -1 -247 2 -7 17 -13 33 -13 16 0 29 6 30
13 1 6 2 32 3 57 l1 44 55 1 c52 0 55 2 57 28 2 27 1 27 -56 27 -57 0 -58 0
-56 28 1 29 -1 28 93 31 27 1 32 5 32 26 0 14 -3 25 -7 26 -5 0 -47 2 -96 2
-86 2 -87 2 -88 -23z"/>
<path d="M1644 3218 c-5 -8 -7 -100 -5 -236 1 -43 1 -43 34 -40 l32 3 1 137 1
136 -29 4 c-16 3 -31 1 -34 -4z"/>
<path d="M1809 3223 c-14 -3 -16 -24 -16 -142 l0 -138 33 -1 c33 -1 34 0 34
36 0 20 7 45 14 55 13 17 16 15 45 -27 17 -24 31 -49 31 -55 0 -5 18 -9 40 -9
22 0 40 5 40 10 0 5 -17 35 -38 66 -21 31 -41 62 -45 69 -4 7 11 35 38 67 25
31 45 59 45 63 0 5 -16 8 -35 7 -29 -1 -41 -9 -82 -60 l-48 -59 -5 59 c-5 60
-12 68 -51 59z"/>
<path d="M2133 3222 c-23 -3 -23 -6 -23 -141 l0 -138 83 -1 c102 -2 115 2 115
33 0 24 -3 25 -65 25 -64 0 -64 0 -61 28 3 25 7 27 48 28 68 1 70 2 70 29 0
24 -3 25 -60 25 -60 0 -60 0 -60 30 0 27 3 29 33 28 85 -2 95 1 93 27 0 14 -7
25 -16 26 -43 3 -138 4 -157 1z"/>
<path d="M2408 3222 c-13 -3 -15 -24 -14 -143 l1 -140 30 3 c28 3 30 7 35 48
7 62 28 62 62 0 25 -45 31 -49 63 -48 19 1 35 3 35 6 0 2 -12 25 -27 51 l-26
48 21 21 c31 31 30 95 -3 127 -13 14 -32 25 -42 26 -10 0 -41 1 -69 2 -28 1
-58 1 -66 -1z m127 -68 c23 -23 -1 -57 -42 -59 -29 -1 -30 0 -28 34 3 45 1 41
29 41 14 0 32 -7 41 -16z"/>
<path d="M2883 3139 c-51 -19 -70 -97 -33 -137 48 -51 130 -12 130 61 0 59
-46 95 -97 76z"/>
<path d="M3109 3120 c-35 -35 -39 -85 -9 -118 67 -72 176 41 113 117 -30 34
-71 35 -104 1z"/>
<path d="M4079 2861 c-75 -19 -145 -58 -207 -115 -42 -39 -92 -120 -92 -150 0
-7 -19 -42 -41 -76 -128 -191 -424 -392 -576 -392 -65 0 -115 33 -133 88 -16
48 -8 152 19 233 19 57 20 67 7 86 -38 58 -77 36 -258 -140 -73 -72 -162 -155
-198 -185 -36 -30 -67 -57 -70 -60 -18 -20 -103 -82 -144 -105 -45 -26 -50
-27 -61 -12 -44 60 77 278 248 449 240 240 481 331 571 216 23 -30 25 -31 49
-15 38 25 40 54 6 88 -37 36 -66 44 -159 43 -257 -2 -676 -271 -863 -554 -47
-72 -64 -89 -109 -112 -176 -89 -270 -72 -282 50 -6 59 27 207 78 352 60 169
63 215 17 261 -23 23 -38 29 -71 29 -87 0 -187 -68 -375 -252 -71 -70 -131
-128 -133 -128 -1 0 1 8 6 18 14 26 42 142 46 187 7 79 -37 147 -108 166 -115
31 -268 -63 -532 -326 l-151 -150 29 72 c39 100 59 179 59 239 1 94 -59 184
-121 184 -39 0 -47 -16 -48 -100 -1 -128 -73 -337 -224 -650 -83 -173 -89
-203 -45 -219 38 -14 66 6 132 94 17 22 35 46 42 55 7 8 35 44 63 80 263 333
614 650 720 650 69 0 17 -150 -174 -504 -110 -203 -116 -219 -91 -246 50 -55
102 -14 280 220 136 180 501 526 544 518 24 -5 16 -38 -34 -142 -87 -182 -115
-279 -112 -391 3 -84 27 -130 90 -174 88 -59 195 -61 316 -5 41 19 82 41 91
49 15 13 16 10 16 -38 -1 -63 21 -98 77 -123 34 -15 46 -16 94 -6 107 22 269
134 462 318 l91 86 0 -60 c0 -33 6 -75 14 -94 46 -109 194 -162 346 -124 184
46 429 215 566 390 l31 40 12 -65 c6 -35 13 -75 16 -89 3 -14 6 -64 6 -111 2
-138 -35 -235 -108 -283 -80 -53 -184 -43 -258 25 -51 47 -75 49 -109 8 -20
-24 -24 -35 -16 -49 29 -54 130 -94 235 -93 235 2 430 205 439 458 2 35 -5
110 -15 167 -10 57 -19 129 -20 160 -2 103 57 186 146 202 27 5 47 1 86 -19
28 -14 55 -25 60 -25 16 0 59 48 59 65 0 40 -132 61 -231 36z"/>
<path d="M4782 2859 c-123 -20 -259 -114 -309 -213 -36 -71 -38 -143 -8 -276
11 -48 18 -135 18 -210 0 -56 -5 -86 -21 -117 -47 -92 -164 -97 -257 -12 -48
45 -73 49 -102 17 -36 -40 -35 -55 3 -87 132 -108 385 -76 499 64 59 72 76
128 70 242 -2 54 -6 107 -9 118 -24 99 -34 169 -33 224 2 56 7 72 32 108 56
78 134 96 206 49 42 -28 57 -26 93 12 50 56 -52 102 -182 81z"/>
</g>
</svg>
